<svg width="83" height="42" viewBox="30 4 26 33" fill="none" xmlns="http://www.w3.org/2000/svg"><path d="M42.5688 16.5225C42.5688 17.1712 42.0434 17.6937 41.3911 17.6937C40.7388 17.6937 40.2133 17.1712 40.2133 16.5225C40.2133 15.8739 40.7207 15.3514 41.3911 15.3514C42.0615 15.3694 42.5688 15.8919 42.5688 16.5225ZM37.7128 18.8829C37.7128 18.991 37.7128 19.1712 37.7128 19.1712C37.7128 19.1712 37.1511 18.4505 35.9553 18.4505C33.9803 18.4505 32.4401 19.9459 32.4401 22.018C32.4401 24.0721 33.9621 25.5856 35.9553 25.5856C37.1693 25.5856 37.7128 24.8468 37.7128 24.8468V25.1532C37.7128 25.2973 37.8216 25.4054 37.9665 25.4054H39.4342V18.6306C39.4342 18.6306 38.0934 18.6306 37.9665 18.6306C37.8216 18.6306 37.7128 18.7568 37.7128 18.8829ZM37.7128 23.2252C37.4411 23.6216 36.8975 23.964 36.2452 23.964C35.0855 23.964 34.1977 23.2432 34.1977 22.018C34.1977 20.7928 35.0855 20.0721 36.2452 20.0721C36.8794 20.0721 37.4592 20.4324 37.7128 20.8108V23.2252ZM40.5213 18.6306H42.2608V25.4054H40.5213V18.6306ZM66.5045 18.4505C65.3086 18.4505 64.7469 19.1712 64.7469 19.1712V15.3694H63.0074V25.4054C63.0074 25.4054 64.3483 25.4054 64.4751 25.4054C64.6201 25.4054 64.7288 25.2793 64.7288 25.1532V24.8468C64.7288 24.8468 65.2905 25.5856 66.4864 25.5856C68.4614 25.5856 70.0015 24.0721 70.0015 22.018C70.0015 19.964 68.4614 18.4505 66.5045 18.4505ZM66.2146 23.9459C65.5442 23.9459 65.0187 23.6036 64.7469 23.2072V20.7928C65.0187 20.4324 65.5985 20.0541 66.2146 20.0541C67.3742 20.0541 68.2621 20.7748 68.2621 22C68.2621 23.2252 67.3742 23.9459 66.2146 23.9459ZM62.1015 21.3874V25.4234H60.362V21.5856C60.362 20.4685 59.9996 20.018 59.0212 20.018C58.4957 20.018 57.9521 20.2883 57.6079 20.6847V25.4054H55.8684V18.6306H57.2455C57.3904 18.6306 57.4992 18.7568 57.4992 18.8829V19.1712C58.0065 18.6486 58.6769 18.4505 59.3473 18.4505C60.1083 18.4505 60.7425 18.6667 61.2499 19.0991C61.8659 19.6036 62.1015 20.2523 62.1015 21.3874ZM51.6466 18.4505C50.4507 18.4505 49.889 19.1712 49.889 19.1712V15.3694H48.1496V25.4054C48.1496 25.4054 49.4904 25.4054 49.6173 25.4054C49.7622 25.4054 49.8709 25.2793 49.8709 25.1532V24.8468C49.8709 24.8468 50.4326 25.5856 51.6285 25.5856C53.6035 25.5856 55.1437 24.0721 55.1437 22.018C55.1618 19.964 53.6216 18.4505 51.6466 18.4505ZM51.3567 23.9459C50.6863 23.9459 50.1608 23.6036 49.889 23.2072V20.7928C50.1608 20.4324 50.7407 20.0541 51.3567 20.0541C52.5163 20.0541 53.4042 20.7748 53.4042 22C53.4042 23.2252 52.5163 23.9459 51.3567 23.9459ZM46.6457 18.4505C47.1711 18.4505 47.4429 18.5405 47.4429 18.5405V20.1441C47.4429 20.1441 45.9934 19.6577 45.0874 20.6847V25.4234H43.348V18.6306C43.348 18.6306 44.6888 18.6306 44.8156 18.6306C44.9606 18.6306 45.0693 18.7568 45.0693 18.8829V19.1712C45.3954 18.7928 46.1021 18.4505 46.6457 18.4505ZM28.5807 24.7928C28.4901 24.5766 28.3995 24.3423 28.3089 24.1441C28.164 23.8198 28.019 23.5135 27.8922 23.2252L27.874 23.2072C26.6238 20.5045 25.283 17.7658 23.8697 15.0631L23.8153 14.955C23.6704 14.6847 23.5254 14.3964 23.3805 14.1081C23.1993 13.7838 23.0181 13.4414 22.7282 13.1171C22.1483 12.3964 21.3148 12 20.427 12C19.521 12 18.7057 12.3964 18.1077 13.0811C17.8359 13.4054 17.6366 13.7477 17.4554 14.0721C17.3105 14.3604 17.1655 14.6486 17.0206 14.9189L16.9662 15.027C15.571 17.7297 14.2121 20.4685 12.9618 23.1712L12.9437 23.2072C12.8169 23.4955 12.6719 23.8018 12.527 24.1261C12.4364 24.3243 12.3458 24.5405 12.2552 24.7748C12.0196 25.4414 11.9472 26.0721 12.0377 26.7207C12.2371 28.0721 13.143 29.2072 14.3933 29.7117C14.8644 29.9099 15.3536 30 15.8609 30C16.0059 30 16.1871 29.982 16.332 29.964C16.93 29.8919 17.546 29.6937 18.144 29.3514C18.8869 28.9369 19.5935 28.3423 20.3908 27.4775C21.188 28.3423 21.9128 28.9369 22.6376 29.3514C23.2355 29.6937 23.8516 29.8919 24.4495 29.964C24.5944 29.982 24.7756 30 24.9206 30C25.4279 30 25.9353 29.9099 26.3883 29.7117C27.6566 29.2072 28.5445 28.0541 28.7438 26.7207C28.8887 26.0901 28.8163 25.4595 28.5807 24.7928ZM20.4089 25.7297C19.4304 24.5045 18.7963 23.3514 18.5788 22.3784C18.4882 21.964 18.4701 21.6036 18.5245 21.2793C18.5607 20.991 18.6694 20.7387 18.8144 20.5225C19.1586 20.036 19.7385 19.7297 20.4089 19.7297C21.0793 19.7297 21.6772 20.018 22.0034 20.5225C22.1483 20.7387 22.2571 20.991 22.2933 21.2793C22.3477 21.6036 22.3295 21.982 22.2389 22.3784C22.0215 23.3333 21.3873 24.4865 20.4089 25.7297ZM27.6385 26.5766C27.5117 27.5135 26.8775 28.3243 25.9896 28.6847C25.5548 28.8649 25.0837 28.9189 24.6126 28.8649C24.1596 28.8108 23.7066 28.6667 23.2355 28.3964C22.5832 28.036 21.9309 27.4775 21.1699 26.6486C22.3658 25.1892 23.0905 23.8559 23.3623 22.6667C23.4892 22.1081 23.5073 21.6036 23.4529 21.1351C23.3805 20.6847 23.2174 20.2703 22.9637 19.9099C22.402 19.0991 21.4598 18.6306 20.4089 18.6306C19.358 18.6306 18.4158 19.1171 17.8541 19.9099C17.6004 20.2703 17.4373 20.6847 17.3648 21.1351C17.2924 21.6036 17.3105 22.1261 17.4554 22.6667C17.7272 23.8559 18.4701 25.2072 19.6479 26.6667C18.905 27.4955 18.2346 28.0541 17.5823 28.4144C17.1112 28.6847 16.6582 28.8288 16.2052 28.8829C15.716 28.9369 15.2449 28.8649 14.8281 28.7027C13.9403 28.3423 13.3061 27.5315 13.1793 26.5946C13.1249 26.1441 13.1611 25.6937 13.3423 25.1892C13.3967 25.009 13.4873 24.8288 13.5779 24.6126C13.7047 24.3243 13.8497 24.018 13.9946 23.7117L14.0128 23.6757C15.263 20.991 16.6038 18.2523 17.999 15.5856L18.0534 15.4775C18.1983 15.2072 18.3433 14.9189 18.4882 14.6486C18.6332 14.3604 18.7963 14.0901 18.9956 13.8559C19.3761 13.4234 19.8834 13.1892 20.4451 13.1892C21.0068 13.1892 21.5142 13.4234 21.8947 13.8559C22.094 14.0901 22.2571 14.3604 22.402 14.6486C22.547 14.9189 22.6919 15.2072 22.8369 15.4775L22.8912 15.5856C24.2683 18.2703 25.6091 21.009 26.8594 23.6937V23.7117C27.0043 24 27.1312 24.3243 27.2761 24.6126C27.3667 24.8288 27.4573 25.009 27.5117 25.1892C27.6566 25.6577 27.711 26.1081 27.6385 26.5766Z" fill="#C4CBD1" /></svg>