<svg width="131" height="42" viewBox="0 0 131 42" fill="none" xmlns="http://www.w3.org/2000/svg"><g clip-path="url(#clip0)"><path d="M53.6311 13.8326C53.6311 13.4068 53.8001 12.9984 54.1008 12.6973C54.4015 12.3961 54.8095 12.227 55.2348 12.227C55.6601 12.227 56.068 12.3961 56.3687 12.6973C56.6694 12.9984 56.8384 13.4068 56.8384 13.8326C56.8229 14.2481 56.6472 14.6414 56.3481 14.9298C56.0491 15.2183 55.65 15.3794 55.2348 15.3794C54.8195 15.3794 54.4204 15.2183 54.1214 14.9298C53.8223 14.6414 53.6466 14.2481 53.6311 13.8326Z" fill="#C4CBD1"/><path d="M78.9331 24.541C78.9331 23.6498 79.6501 22.9297 80.5334 22.9297C80.96 22.9297 81.369 23.0994 81.6706 23.4013C81.9722 23.7033 82.1416 24.1128 82.1416 24.5398C82.1416 24.9669 81.9722 25.3764 81.6706 25.6784C81.369 25.9803 80.96 26.15 80.5334 26.15C79.6512 26.15 78.9331 25.4288 78.9331 24.5398" fill="#C4CBD1"/><path d="M27.3129 23.8444C25.9326 23.8444 24.9722 22.7464 24.9722 21.1765C24.9722 19.6078 25.9326 18.5109 27.314 18.5109C28.7021 18.5109 29.6726 19.6078 29.6726 21.1765C29.6726 22.771 28.7234 23.8444 27.3129 23.8444ZM27.3129 16.1662C24.3915 16.1662 22.2708 18.2738 22.2708 21.1765C22.2708 24.0803 24.3927 26.1869 27.3129 26.1869C30.2466 26.1869 32.3751 24.0803 32.3751 21.1776C32.3751 18.2738 30.2466 16.1662 27.314 16.1662H27.3129ZM50.5254 21.4281C50.4238 21.2312 50.2953 21.0494 50.1435 20.888L50.0542 20.7952L50.148 20.7058C50.282 20.5638 50.4194 20.3961 50.5511 20.2015L53.1308 16.3641H49.9995L48.0619 19.3663C47.9525 19.5273 47.7314 19.6078 47.3997 19.6078H46.9586V13.9321C46.9586 12.7972 46.2517 12.6429 45.489 12.6429H44.1824L44.1857 26.0393H46.9597V22.0207H47.2199C47.536 22.0207 47.7503 22.0576 47.8497 22.2298L49.3797 25.1213C49.8074 25.9062 50.2328 26.0393 51.0347 26.0393H53.1598L51.5763 23.4184L50.5266 21.4281H50.5254ZM63.9911 16.1438C62.5796 16.1438 61.6794 16.7722 61.1747 17.3033L61.0072 17.4733L60.9469 17.2418C60.7995 16.6727 60.2992 16.3607 59.5476 16.3607H58.3047L58.3125 26.0359H61.0675V21.5768C61.0675 21.1407 61.1233 20.7628 61.2394 20.4173C61.5454 19.3718 62.4009 18.7222 63.4696 18.7222C64.3295 18.7222 64.6657 19.1773 64.6657 20.3513V24.5656C64.6657 25.5674 65.129 26.0359 66.1308 26.0359H67.4418L67.4374 19.8817C67.4374 17.4375 66.2458 16.1449 63.9911 16.1449V16.1438ZM55.2682 16.3641H53.9628L53.9717 23.8455V26.0393H55.3643L55.4134 26.0415L56.0634 26.0393H56.7089V26.0359H56.7133L56.7189 17.8344C56.7189 16.8449 56.2466 16.3652 55.2694 16.3652L55.2682 16.3641ZM38.133 23.8444C36.7527 23.8444 35.7912 22.7464 35.7912 21.1765C35.7912 19.6078 36.7527 18.5109 38.1342 18.5109C39.5189 18.5109 40.4927 19.6078 40.4927 21.1765C40.4927 22.771 39.5435 23.8444 38.1342 23.8444H38.133ZM38.133 16.1662C35.2094 16.1662 33.0876 18.2738 33.0876 21.1765C33.0876 24.0803 35.2094 26.1869 38.1342 26.1869C41.0634 26.1869 43.1963 24.0803 43.1963 21.1776C43.1963 18.2738 41.0634 16.1662 38.1342 16.1662" fill="#C4CBD1"/><path d="M97.1806 23.8443C95.8003 23.8443 94.8377 22.7463 94.8377 21.1765C94.8377 19.6077 95.8003 18.5109 97.1806 18.5109C98.5676 18.5109 99.5403 19.6077 99.5403 21.1765C99.5403 22.7709 98.591 23.8443 97.1806 23.8443ZM97.1806 16.1661C94.257 16.1661 92.1364 18.2738 92.1364 21.1765C92.1364 24.0803 94.257 26.1868 97.1806 26.1868C100.111 26.1868 102.243 24.0803 102.243 21.1776C102.243 18.2738 100.11 16.1661 97.1806 16.1661Z" fill="#C4CBD1"/><path d="M73.2456 23.4183C71.7391 23.4183 71.2031 22.1034 71.2031 20.8701C71.2031 20.3267 71.3404 18.5567 73.1015 18.5567C73.9759 18.5567 75.1406 18.8072 75.1406 20.9607C75.1406 22.9923 74.1099 23.4183 73.2456 23.4183ZM76.5712 16.3383C76.0485 16.3383 75.6465 16.5474 75.4444 16.9287L75.3685 17.0763L75.2412 16.9645C74.7967 16.5798 73.9993 16.1225 72.705 16.1225C70.1287 16.1225 68.3944 18.0602 68.3944 20.9417C68.3944 23.822 70.189 25.8346 72.7564 25.8346C73.6331 25.8346 74.3265 25.6289 74.876 25.2129L75.0881 25.053V25.3214C75.0881 26.6139 74.2539 27.3273 72.7408 27.3273C72.0048 27.3273 71.3359 27.1484 70.887 26.9852C70.3041 26.8085 69.9601 26.955 69.7245 27.542L69.5056 28.0832L69.1962 28.8748L69.3872 28.9766C70.3565 29.4909 71.6174 29.7984 72.7564 29.7984C75.1016 29.7984 77.842 28.5964 77.842 25.2129L77.8521 16.3383H76.5712Z" fill="#C4CBD1"/><path d="M17.0548 23.7337L14.8124 23.7314V21.0479C14.8124 20.4732 15.0346 20.1758 15.5249 20.1065H17.0548C18.1459 20.1065 18.8516 20.7952 18.8527 21.91C18.8516 23.055 18.1637 23.7326 17.0548 23.7326V23.7337ZM14.8124 16.4927V15.786C14.8124 15.1677 15.0737 14.8736 15.6466 14.8356H16.7946C17.7785 14.8356 18.3681 15.4248 18.3681 16.4122C18.3681 17.1635 17.9638 18.0413 16.8304 18.0413H14.8124V16.4927ZM19.9182 19.1717L19.5127 18.9436L19.8668 18.6406C20.2788 18.2861 20.9679 17.4889 20.9679 16.1136C20.9679 14.007 19.3374 12.6474 16.8125 12.6474H13.603C13.2418 12.6606 12.8996 12.8124 12.6472 13.0713C12.3948 13.3303 12.2516 13.6766 12.2473 14.0384V25.9912H16.8694C19.6758 25.9912 21.4871 24.4616 21.4871 22.0923C21.4871 20.8165 20.902 19.7263 19.9182 19.1717Z" fill="#C4CBD1"/><path d="M114.548 16.1762C113.98 16.1783 113.419 16.3083 112.907 16.5566C112.395 16.8049 111.945 17.1652 111.591 17.6108L111.392 17.8635L111.236 17.5806C110.725 16.6492 109.847 16.1762 108.626 16.1762C107.345 16.1762 106.487 16.8918 106.088 17.3167L105.827 17.5996L105.726 17.2273C105.581 16.6906 105.104 16.3965 104.383 16.3965H103.224L103.213 26.0348H105.843V21.7803C105.843 21.4068 105.89 21.039 105.983 20.6532C106.234 19.6245 106.924 18.5187 108.085 18.6294C108.799 18.6987 109.15 19.2522 109.15 20.3211V26.0348H111.799V21.7803C111.799 21.314 111.842 20.9652 111.947 20.6163C112.16 19.6346 112.881 18.6283 114 18.6283C114.811 18.6283 115.11 19.0867 115.11 20.3211V24.6259C115.11 25.5987 115.543 26.0348 116.516 26.0348H117.753L117.756 19.8817C117.756 17.4229 116.675 16.1762 114.548 16.1762ZM90.612 22.6882C90.6042 22.6983 89.4729 23.8924 87.9821 23.8924C86.6241 23.8924 85.2528 23.0583 85.2528 21.1966C85.2528 19.5888 86.3159 18.465 87.8391 18.465C88.3327 18.465 88.8956 18.6417 88.9838 18.9402L88.9961 18.9906C89.0524 19.1961 89.1748 19.3773 89.3444 19.5061C89.514 19.6348 89.7213 19.704 89.9341 19.7028L91.3748 19.705V18.4438C91.3748 16.78 89.2607 16.1762 87.8391 16.1762C84.7971 16.1762 82.5904 18.2962 82.5904 21.2168C82.5904 24.1351 84.7726 26.2528 87.7833 26.2528C90.3943 26.2528 91.8148 24.5343 91.8282 24.5175L91.9041 24.4236L90.7627 22.5283L90.612 22.6882Z" fill="#C4CBD1"/></g><defs><clipPath id="clip0"><rect width="106" height="18" fill="white" transform="translate(12.0015 12)"/></clipPath></defs></svg>