<svg width="160" height="42" viewBox="0 0 160 42" fill="none" xmlns="http://www.w3.org/2000/svg"><mask id="mask0" style="mask-type:alpha" maskUnits="userSpaceOnUse" x="12" y="12" width="14" height="18"><path d="M12.0021 12.1146H25.3787V29.5266H12.0015L12.0021 12.1146Z" fill="white"/></mask><g mask="url(#mask0)"><path d="M22.7665 17.0652C22.7665 18.4152 22.3279 19.4358 21.4628 20.1C20.5899 20.7696 19.2437 21.1093 17.4625 21.1093C17.1198 21.1104 16.7772 21.0972 16.4356 21.0696C16.1492 21.0456 15.8772 21.0102 15.6256 20.9646V14.5926C15.6256 13.9344 15.7957 13.4958 16.1307 13.2894C16.4811 13.0734 17.1474 12.9642 18.1101 12.9642C19.6019 12.9642 20.7642 13.3236 21.5653 14.0322C22.3621 14.739 22.7665 15.7596 22.7665 17.0652ZM23.253 13.4352C21.857 12.5592 19.8937 12.1152 17.417 12.1152C17.2109 12.1152 16.8933 12.1218 16.4188 12.138C15.9791 12.153 15.483 12.1764 14.945 12.207L11.9901 12.3678V13.0062L12.0818 13.0104C12.4275 13.0242 12.6689 13.1694 12.8199 13.4532C12.9781 13.752 13.0584 14.2782 13.0584 15.018V26.9112C13.0584 27.6204 12.9781 28.1358 12.8193 28.4418C12.6689 28.7328 12.4281 28.8798 12.0836 28.8864L11.9901 28.8882V29.5272H16.6944V28.8882L16.6004 28.8864C16.2553 28.8804 16.0144 28.7364 15.864 28.4526C15.7059 28.1544 15.6256 27.636 15.6256 26.9106V21.813C16 21.867 16.3817 21.9096 16.7615 21.9408C17.1767 21.9756 17.6003 21.993 18.0197 21.993C20.3538 21.993 22.1806 21.5676 23.4483 20.7294C24.7292 19.8822 25.3787 18.6654 25.3787 17.1114C25.3787 15.5574 24.6633 14.3202 23.253 13.4352Z" fill="#C4CBD1"/></g><path d="M38.7528 25.8114L38.0907 25.5894L38.05 25.6476C37.6606 26.2008 37.2939 26.6616 36.962 27.0174C36.6325 27.369 36.3203 27.63 36.0346 27.7926C35.5642 28.057 35.0535 28.2419 34.523 28.3398C33.9598 28.4496 33.0653 28.5054 31.8647 28.5054C30.8761 28.5054 30.4975 28.3746 30.3531 28.2654C30.2153 28.1604 30.0506 27.852 30.0506 26.9796V15.0174C30.0506 14.2782 30.1308 13.7514 30.289 13.4532C30.4406 13.1688 30.682 13.0236 31.0271 13.0098L31.1188 13.0062V12.3672H26.3696V13.0062L26.4612 13.0098C26.8063 13.0236 27.0484 13.1724 27.1987 13.464C27.3575 13.7712 27.4384 14.2938 27.4384 15.018V26.9106C27.4384 27.6198 27.3593 28.1334 27.2041 28.4364C27.0568 28.7244 26.8129 28.8618 26.4594 28.8828L26.3696 28.8882V29.5266H37.8505L38.7534 25.8114H38.7528ZM51.638 27.7974C52.0155 27.291 52.291 26.622 52.457 25.809C52.6206 25.005 52.7032 23.7894 52.7032 22.1946V16.686C52.7032 15.4542 52.8135 14.559 53.031 14.0256C53.2454 13.5 53.6031 13.188 54.1244 13.0272L54.1927 13.0062V12.3672H50.0677V13.0062L50.1486 13.0194C50.6806 13.1064 51.0605 13.4124 51.3097 13.9764C51.5643 14.5506 51.6931 15.4242 51.6931 16.5708V22.1718C51.6931 23.9808 51.5853 25.2738 51.3732 26.0154C51.1647 26.7474 50.798 27.333 50.2858 27.7554C49.878 28.0813 49.4102 28.3237 48.909 28.4688C48.3908 28.6224 47.7611 28.7004 47.038 28.7004C45.491 28.7004 44.3839 28.3056 43.7464 27.528C43.1054 26.7444 42.78 25.3644 42.78 23.4258V15.0174C42.78 14.2782 42.8603 13.7514 43.0185 13.4532C43.1695 13.1688 43.4109 13.0236 43.7566 13.0098L43.8483 13.0062V12.3672H39.099V13.0062L39.1907 13.0098C39.5358 13.0236 39.7773 13.1724 39.9282 13.464C40.087 13.77 40.1679 14.2932 40.1679 15.018V22.9542C40.1679 24.3816 40.2488 25.4442 40.4087 26.1114C40.5705 26.7852 40.8401 27.3684 41.2115 27.8454C41.7424 28.5078 42.4571 29.0226 43.336 29.3754C44.2107 29.7276 45.231 29.9058 46.3676 29.9058C47.594 29.9058 48.652 29.7318 49.5111 29.3874C50.3769 29.0406 51.0922 28.506 51.638 27.7974ZM69.4744 27.1302C69.4894 27.2442 69.5007 27.348 69.5079 27.4422C69.5157 27.5352 69.5193 27.6222 69.5193 27.705C69.5193 28.0482 69.433 28.329 69.2623 28.5408C69.0927 28.7508 68.8711 28.8606 68.5853 28.8816L68.496 28.8876V29.5266H73.2003V28.8882L73.1248 28.8714C72.8438 28.809 72.5976 28.593 72.3939 28.1994C72.1794 27.789 72.0182 27.2154 71.9146 26.4954L70.2886 14.9316C70.2439 14.671 70.2216 14.407 70.2221 14.1426C70.2221 13.8144 70.3012 13.5486 70.4569 13.3524C70.6103 13.1592 70.8314 13.0506 71.116 13.0158L71.1998 13.0056V12.3672H67.5404L63.9739 25.7004L60.1611 12.3672H56.2878V13.0062L56.3483 13.0302C56.7137 13.1754 56.9744 13.3404 57.1211 13.5744C57.2697 13.8108 57.3446 14.1606 57.3446 14.6154C57.3446 14.8698 57.3374 15.1272 57.3219 15.3858L57.323 15.4524L55.8229 25.5972C55.6809 26.5776 55.446 27.3534 55.1243 27.9024C54.8103 28.44 54.4113 28.7544 53.9398 28.8702L53.8667 28.8882V29.5266H58.184V28.8882L58.1049 28.8744C57.6598 28.7946 57.3326 28.593 57.1062 28.2336C56.8785 27.8712 56.7635 27.36 56.7635 26.7156C56.7635 26.5506 56.7725 26.3598 56.7916 26.1492C56.8096 25.9416 56.8378 25.7112 56.8755 25.464L58.3481 15.18L62.6205 29.7108H63.9361L67.7903 15.2112L69.4744 27.1302ZM107.748 27.7974C108.126 27.291 108.402 26.622 108.567 25.809C108.73 25.005 108.813 23.7894 108.813 22.1946V16.686C108.813 15.4542 108.924 14.559 109.141 14.0256C109.355 13.5 109.714 13.188 110.235 13.0272L110.303 13.0062V12.3672H106.178V13.0062L106.258 13.0194C106.79 13.1064 107.17 13.4124 107.42 13.9764C107.674 14.5506 107.804 15.4242 107.804 16.5708V22.1718C107.804 23.9808 107.696 25.2738 107.483 26.0154C107.275 26.7474 106.909 27.333 106.396 27.7554C105.989 28.0813 105.521 28.3237 105.02 28.4688C104.501 28.6224 103.872 28.7004 103.148 28.7004C101.601 28.7004 100.494 28.3056 99.8569 27.528C99.2158 26.7444 98.8899 25.3644 98.8899 23.4258V15.0174C98.8899 14.2782 98.9702 13.7514 99.129 13.4532C99.2794 13.1688 99.5208 13.0236 99.8665 13.0098L99.9587 13.0062V12.3672H95.2089V13.0062L95.3006 13.0098C95.6457 13.0236 95.8871 13.1724 96.0381 13.464C96.1969 13.77 96.2778 14.2932 96.2778 15.018V22.9542C96.2778 24.3816 96.3586 25.4442 96.5186 26.1114C96.6804 26.7852 96.95 27.3684 97.3214 27.8454C97.8522 28.5078 98.5676 29.0226 99.4465 29.3754C100.321 29.7276 101.341 29.9058 102.477 29.9058C103.704 29.9058 104.762 29.7318 105.622 29.3874C106.487 29.0406 107.202 28.506 107.748 27.7974ZM93.7729 27.2634C93.4907 27.249 93.2768 27.1314 93.1192 26.9016C92.9574 26.6658 92.8748 26.3364 92.8748 25.9218V20.8272C92.8748 20.4504 92.9586 20.2074 93.1246 19.9728C93.2846 19.7448 93.4841 19.6338 93.7339 19.6338H93.8298V18.993H84.9838V19.6338C84.9838 19.6338 85.3672 19.6644 85.6997 19.6782C86.8099 19.722 89.1087 19.7568 89.7635 20.073C90.1769 20.2722 90.3986 20.7018 90.3986 21.183V26.3478C90.3986 27.1536 90.0433 27.8094 89.343 28.2978C88.6318 28.794 87.6726 29.0454 86.493 29.0454C84.6782 29.0454 83.2841 28.3554 82.3488 26.9934C81.4058 25.6224 80.9277 23.5818 80.9277 20.9298C80.9277 18.3324 81.3891 16.3272 82.2979 14.9694C83.1996 13.6236 84.5224 12.9414 86.2317 12.9414C87.3731 12.9414 88.4245 13.2912 89.3585 13.9812C90.2944 14.6724 91.0451 15.6576 91.5891 16.9092L91.613 16.9632L92.1492 16.9944L92.8424 14.007L92.7849 13.9704C91.767 13.3176 90.7623 12.8214 89.7971 12.4938C88.8283 12.1662 87.8739 12 86.9591 12C85.8243 12 84.7363 12.192 83.7256 12.57C82.7143 12.948 81.8294 13.4928 81.0967 14.1882C80.1498 15.0792 79.4021 16.161 78.9027 17.3622C78.4072 18.5568 78.1562 19.866 78.1562 21.252C78.1562 22.3782 78.3264 23.4588 78.6613 24.4638C78.9974 25.4718 79.4773 26.3478 80.089 27.0654C80.8972 28.0314 81.8013 28.7538 82.776 29.2134C83.7502 29.673 84.8669 29.9064 86.0951 29.9064C87.2574 29.9064 88.4898 29.727 89.7582 29.3742C91.0235 29.0214 92.3907 28.4736 93.8226 27.7458L93.8777 27.7176L93.8597 27.2676L93.7729 27.2634ZM111.631 13.0062L111.723 13.0098C112.068 13.0236 112.31 13.1724 112.46 13.464C112.619 13.7712 112.7 14.2944 112.7 15.018V26.9106C112.7 27.6198 112.621 28.1334 112.466 28.4364C112.319 28.7244 112.075 28.8618 111.721 28.8828L111.631 28.8882V29.5266H116.381V28.8882L116.289 28.8846C115.935 28.8714 115.692 28.7274 115.545 28.4466C115.39 28.1526 115.312 27.6354 115.312 26.9106V15.0174C115.312 14.2782 115.393 13.7514 115.551 13.4532C115.702 13.1688 115.943 13.0236 116.289 13.0098L116.381 13.0062V12.3672H111.631V13.0062ZM121.919 27.1866V15.0174C121.919 14.2746 122.105 13.7754 122.471 13.5348C122.852 13.2858 123.682 13.1592 124.937 13.1592C126.897 13.1592 128.376 13.8156 129.335 15.1104C130.298 16.4136 130.787 18.4254 130.787 21.0906C130.787 23.8446 130.273 25.8114 129.26 26.9376C128.25 28.0614 126.474 28.6314 123.983 28.6314C123.099 28.6314 122.527 28.53 122.281 28.3302C122.041 28.1358 121.919 27.7512 121.919 27.1866ZM129.153 13.1826C128.511 12.8508 127.785 12.6066 126.996 12.4554C126.208 12.3054 125.194 12.2292 123.983 12.2292C123.565 12.2292 123.218 12.2316 122.941 12.2352C122.664 12.2394 122.386 12.2454 122.105 12.2526L118.283 12.3672V13.0062L118.375 13.0098C118.72 13.0236 118.962 13.1688 119.113 13.4538C119.271 13.752 119.352 14.2782 119.352 15.0174V26.9106C119.352 27.6204 119.271 28.1358 119.112 28.4418C118.962 28.7328 118.721 28.8798 118.377 28.8858L118.283 28.8882V29.5266H124.574C127.374 29.5266 129.594 28.7826 131.175 27.3162C132.756 25.8462 133.559 23.7834 133.559 21.1824C133.559 19.4184 133.161 17.802 132.375 16.3794C131.589 14.9544 130.505 13.8786 129.153 13.1832V13.1826ZM147.309 25.6008L147.26 25.6698C146.751 26.3898 146.263 26.9544 145.809 27.3498C145.359 27.7416 144.884 28.0242 144.4 28.1874C144.011 28.3074 143.555 28.3956 143.043 28.4478C142.529 28.5012 141.648 28.5282 140.427 28.5282C139.184 28.5282 138.739 28.3968 138.583 28.287C138.436 28.182 138.26 27.8694 138.26 26.9796V20.3592H140.916C142.152 20.3592 142.977 20.4714 143.37 20.6922C143.756 20.9094 144.051 21.3096 144.247 21.8814L144.269 21.9468H144.842V17.7168H144.292L144.27 17.7816C144.074 18.3588 143.726 18.7674 143.234 18.996C142.73 19.23 141.838 19.35 140.586 19.35H138.26V14.616C138.26 13.9122 138.383 13.6644 138.486 13.581C138.594 13.4934 138.933 13.389 139.938 13.389H140.654C142.622 13.389 143.957 13.5714 144.622 13.9302C145.279 14.2842 145.784 14.9364 146.123 15.8682L146.15 15.9414L146.804 15.849L146.517 12.3672H134.625V13.0062L134.717 13.0098C135.062 13.0236 135.304 13.1688 135.455 13.4538C135.613 13.7526 135.693 14.2788 135.693 15.0174V26.9106C135.693 27.6198 135.613 28.137 135.454 28.4442C135.304 28.7346 135.063 28.8798 134.719 28.8864L134.625 28.8882V29.5266H146.921L147.94 25.9422L147.309 25.6008Z" fill="#C4CBD1"/></svg>