<?xml version="1.0" standalone="no"?>
<!DOCTYPE svg PUBLIC "-//W3C//DTD SVG 20010904//EN"
 "http://www.w3.org/TR/2001/REC-SVG-20010904/DTD/svg10.dtd">
<svg version="1.0" xmlns="http://www.w3.org/2000/svg"
 width="93.000000pt" height="93.000000pt" viewBox="0 0 93.000000 93.000000"
 preserveAspectRatio="xMidYMid meet">
<metadata>
Created by potrace 1.14, written by Peter Selinger 2001-2017
</metadata>
<g transform="translate(0.000000,93.000000) scale(0.100000,-0.100000)"
fill="#000000" stroke="none">
<path d="M329 919 c-1 -33 -8 -86 -13 -117 -7 -37 -54 -141 -72 -160 -7 -6
-16 -21 -19 -32 -3 -11 -11 -20 -16 -20 -6 0 -7 -4 -4 -10 3 -5 2 -10 -3 -10
-5 0 -12 -8 -16 -17 -3 -10 -16 -36 -29 -58 -32 -58 -45 -105 -45 -174 0 -118
51 -204 154 -258 70 -38 88 -42 179 -43 82 -1 112 4 165 28 69 30 154 119 166
175 1 4 3 9 4 12 1 3 4 10 5 15 1 6 4 11 5 13 2 2 10 77 11 102 0 32 -8 96
-14 101 -4 4 -7 16 -7 27 0 52 -148 248 -181 240 -5 -2 -9 2 -9 7 0 6 -5 10
-11 10 -5 0 -7 -5 -4 -11 11 -17 17 -72 8 -66 -4 3 -8 -9 -7 -26 1 -35 -31
-97 -51 -97 -8 0 -12 12 -10 35 1 19 -1 35 -5 35 -4 0 -6 14 -5 30 1 17 -2 30
-7 30 -4 0 -8 9 -8 20 0 31 -47 121 -83 160 -52 57 -77 75 -78 59z m220 -545
c14 -25 26 -60 27 -77 1 -18 3 -34 4 -37 1 -3 1 -9 0 -15 -1 -5 -4 -21 -7 -35
-2 -13 -9 -30 -15 -37 -6 -7 -8 -13 -4 -13 12 0 -33 -39 -61 -53 -69 -34 -138
0 -150 74 -5 37 6 57 76 129 32 33 64 73 71 89 15 38 29 32 59 -25z"/>
</g>
</svg>
